# xmcd
#
# Track frame offsets:
#	150
#	11559
#	21572
#	32634
#	43678
#	58486
#	68117
#	80751
#	94462
#	106996
#	116037
#	126015
#	139631
#	153466
#
# Disc length: 2250 seconds
#
# Revision: 1
# Processed by: cddbd v1.5.2PL0 Copyright (c) Steve Scherf et al.
# Submitted via: audiograbber 1.83.01
#
DISCID=c808c80e
DTITLE=Marty Robbins - The Story of My Life CD2
DYEAR=2008
DGENRE=Country
TTITLE0=Maybellene
TTITLE1=Mean Mama Blues
TTITLE2=Singing The Blues
TTITLE3=I Can´t Quit (I´ve Gone Too Far)
TTITLE4=Tennessee Toddy
TTITLE5=Long Tall Sally
TTITLE6=Mister Teardrop
TTITLE7=Respectfully Miss Brooks
TTITLE8=You Don´t Owe Me A Thing
TTITLE9=Where D´Ja Go ?
TTITLE10=Knee Deep In The Blues
TTITLE11=The Same Two Lips
TTITLE12=The Little Rosewood Casket
TTITLE13=The Dream Of The Miner´s Child
EXTD=
EXTT0=
EXTT1=
EXTT2=
EXTT3=
EXTT4=
EXTT5=
EXTT6=
EXTT7=
EXTT8=
EXTT9=
EXTT10=
EXTT11=
EXTT12=
EXTT13=
PLAYORDER=
